<?xml version="1.0" encoding="UTF-8"?>
<svg width="226px" height="176px" viewBox="0 0 226 176" version="1.1" xmlns="http://www.w3.org/2000/svg" xmlns:xlink="http://www.w3.org/1999/xlink">
    <!-- Generator: Sketch 51.1 (57501) - http://www.bohemiancoding.com/sketch -->
    <title>Group 8</title>
    <desc>Created with Sketch.</desc>
    <defs>
        <polygon id="path-1" points="0 0.428016952 225.865935 0.428016952 225.865935 175.999805 0 175.999805"></polygon>
    </defs>
    <g id="Page-1" stroke="none" stroke-width="1" fill="none" fill-rule="evenodd">
        <g id="Home" transform="translate(-223.000000, -2346.000000)">
            <g id="Group-8" transform="translate(223.000000, 2346.000000)">
                <g id="Group-3">
                    <mask id="mask-2" fill="white">
                        <use xlink:href="#path-1"></use>
                    </mask>
                    <g id="Clip-2"></g>
                    <path d="M221.737228,73.1221506 C220.744646,81.2169399 220.085833,90.8730387 217.221524,98.5791383 C214.475016,105.962058 211.351108,103.566594 204.191426,103.520737 C198.936193,103.485799 188.74859,106.416257 184.128173,104.444421 C176.322768,101.112172 179.363778,85.9183376 179.287426,79.1708602 C179.219799,73.2619042 176.279138,58.996121 184.638644,57.843154 C184.669185,57.8409704 184.686637,57.8235012 184.712815,57.8169502 C190.836285,56.9347558 196.861587,54.7729426 202.971968,53.5107931 C202.402596,56.9784287 201.529997,60.3827386 200.681393,63.4114606 C200.203645,65.1125237 202.849804,65.839679 203.327552,64.1407996 C204.370309,60.4198606 205.552682,56.6377794 206.381652,52.9299423 C208.187934,52.6853735 210.002941,52.5172325 211.835401,52.5652728 C224.293946,52.875351 222.793074,64.5316729 221.737228,73.1221506 M122.878206,37.4718864 C125.583266,39.793106 127.614242,44.3700356 128.796615,49.0408623 C129.198011,50.6327429 129.505602,52.2377253 129.701937,53.7684638 C129.965899,55.8145435 130.037888,57.7274206 129.900454,59.2996483 C129.787016,60.6185727 129.496876,61.9178443 129.13911,63.2040139 C128.809704,64.3722665 128.423579,65.5317844 127.952375,66.6760169 C126.198449,70.9232154 123.633005,75.0044566 121.58894,78.9918009 C118.275242,85.4532202 114.961544,91.9146395 111.647846,98.3782425 C111.645664,98.3782425 111.645664,98.3782425 111.645664,98.3804262 C111.37734,98.9045021 111.4646,99.3936396 111.711109,99.7845129 C103.768269,97.3977838 95.9824965,94.5153663 88.419237,91.0062413 C82.7255228,88.3640252 77.1648801,85.4532202 72.6229977,81.0225951 C70.293156,78.7515994 67.0296324,74.7970099 64.3660213,70.5847497 L63.225097,69.9121856 C63.3603499,69.7396773 63.4890584,69.560618 63.6243114,69.3859261 C69.7826851,61.4723797 75.5658408,53.30553 80.7316321,44.6997667 C81.7111254,43.0685805 82.5880883,41.3216607 83.5239517,39.618414 C84.0518746,38.6619755 84.6103385,37.7317407 85.2037065,36.8342607 C86.4297093,34.9912604 87.8476841,33.3273194 89.7455888,32.132863 C89.8764788,32.0498843 90.0313653,31.9865585 90.1644368,31.9079471 C91.2944536,31.2528522 92.5902644,30.7091234 93.9864243,30.2833117 C98.0767362,29.0386314 102.908758,28.7809608 106.128652,29.6391351 C109.102036,30.4296163 113.829346,32.2289436 117.760408,34.2531868 C117.02088,35.4913162 116.231177,36.670487 115.371666,37.7644954 C114.961544,38.2885714 114.538333,38.7973617 114.093307,39.2777647 C112.108142,41.4264759 109.773938,43.1253553 106.909628,44.0599574 C106.647849,44.1451197 106.462421,44.2957916 106.314079,44.4639326 C105.506924,45.3723308 106.218093,47.1738418 107.638249,46.7087244 C108.292699,46.4947268 108.912245,46.2479744 109.509976,45.9793854 C112.330655,44.7150523 114.544877,42.8698683 116.394789,40.6687495 C116.813637,40.1686937 117.212852,39.6489851 117.598977,39.1161746 C118.434491,37.954473 119.202379,36.7228946 119.91573,35.4410922 C121.063199,36.1202073 122.099411,36.8036896 122.878206,37.4718864 M78.3930644,89.0169365 C93.5653948,98.3061821 111.759102,103.566594 129.025672,107.101923 C130.82541,107.468776 131.597661,104.704276 129.787016,104.333055 C124.33763,103.21721 118.944962,101.902653 113.619922,100.36318 C113.811894,100.245263 113.988595,100.085857 114.121667,99.8281859 C118.916603,90.4799817 125.369479,80.6906803 129.887365,70.7550744 C141.602018,97.764637 136.322789,137.983096 110.794879,153.91282 C84.0104261,170.622108 45.4698709,160.640645 25.4197071,138.192727 C13.9886487,123.736966 8.66142642,104.800356 13.6374272,86.7066351 C18.4519971,69.2024995 29.3158656,58.6401861 44.7477945,49.9427096 C57.1583463,42.9506634 67.5488294,37.6749658 80.5658381,39.1685822 C75.0291918,48.7242331 68.8882702,57.8628069 62.1168951,66.6432621 C60.7403688,63.9137 59.8066869,61.2605657 59.7499679,59.0703651 C59.7019749,57.2273648 56.8333028,57.2208139 56.8834773,59.0703651 C57.1757983,70.4187924 69.2547621,83.422426 78.3930644,89.0169365 M133.063628,62.7257946 C133.32759,61.8938241 133.50211,61.0422007 133.595914,60.1731082 C145.596344,82.7935349 145.879939,114.834226 135.810137,134.882314 C117.07978,172.181233 73.6221245,182.199818 38.4170823,161.931182 C6.66317269,141.85034 -8.00304981,103.001029 12.2194524,69.1741121 C26.5388165,45.2238427 56.3882769,30.3335357 84.8241255,31.4799517 C83.9755221,33.067465 83.0898332,34.6309582 82.2106889,36.196635 C76.2246537,35.0917083 70.1688105,35.0851573 64.1805938,37.2884598 C51.6544225,41.9003279 38.4912533,49.1391265 28.2491122,57.7012168 C3.32765965,78.5354181 4.3965945,115.998112 23.4803539,140.131808 C41.3075695,160.094733 69.987746,168.907943 96.0872085,162.780622 C122.845484,156.498262 137.319734,131.857959 137.926191,105.505675 C138.205423,93.351481 136.532213,78.9939845 131.333699,67.4774163 C131.97506,65.8964539 132.555339,64.3133079 133.063628,62.7257946 M173.770413,158.404588 C174.149994,162.153914 172.302264,171.104694 167.865093,172.43672 C164.365968,173.487056 158.155238,167.532243 155.070597,165.510184 C147.19102,160.339301 136.453679,155.950166 129.597225,149.519317 C133.838061,144.215232 137.129944,138.502805 139.58195,132.515238 C147.476797,143.630014 172.295719,143.841828 173.770413,158.404588 M207.001198,49.7243446 C208.205386,42.0968564 207.190988,34.9628729 199.315774,29.571442 C194.163072,26.0426641 189.568834,26.055766 183.711507,25.5622612 C182.341525,25.7413205 180.982451,25.9662364 179.62774,26.2348253 C169.235075,24.4180288 164.625566,19.8629356 165.805757,12.5717294 C165.101133,10.5846082 165.310557,9.48623244 164.243804,7.86378075 C159.14782,0.105273534 146.519119,-1.53028006 138.960222,2.71473487 C134.136926,5.42464409 130.489459,9.97973726 127.526982,14.5566669 C124.461975,19.2886357 122.188852,25.9815219 119.091123,31.8817433 C116.252992,30.506044 113.18144,29.3923827 110.258231,28.2066609 C107.12996,26.9357768 103.794447,25.6103015 100.328044,25.7456878 C95.6465455,25.9269307 91.7983801,29.4229538 86.9707212,29.1303447 C86.6500408,29.1106919 86.3097268,29.2548128 86.0501283,29.4731777 C81.7503924,29.2438945 77.3415815,29.3137713 72.8258771,29.7461339 C42.7299073,32.6460207 15.164477,50.4624182 4.23080052,79.3826742 C-8.32154876,112.589434 8.35819796,146.167415 37.0340115,164.302626 C65.1775392,180.505306 99.4838035,179.503011 123.46503,156.260244 C125.016076,154.760077 126.471136,153.211869 127.8433,151.626539 C131.61075,155.011196 136.486401,156.886951 140.781774,159.579391 C147.289188,163.658449 153.70716,167.872893 160.105499,172.122275 C167.483331,177.022385 169.160904,178.18627 173.397376,170.218132 C178.321021,160.957274 181.750339,157.507108 172.985073,150.187514 C168.938391,146.807225 164.341971,144.162825 159.649565,141.795749 C153.831506,138.860923 145.336746,136.417419 141.606381,130.646033 C141.331512,130.220222 140.941024,130.052081 140.543991,130.032428 C147.561875,110.888371 146.270428,89.1392208 139.571042,68.7242802 C137.972003,63.8481906 135.888671,59.5005441 133.467206,55.5656074 C132.80403,50.8904135 130.757783,46.0951189 129.365986,42.0400815 C127.917471,37.8081684 124.869916,35.08079 121.207178,32.9975883 C122.439725,30.5387987 123.578468,27.9839287 124.795745,25.494568 C128.096354,18.744907 131.667469,11.3445183 137.98291,6.9160768 C143.390848,3.12307735 151.560564,1.75392902 157.243371,5.89412876 C161.961955,9.33556062 161.359861,13.8164097 162.878185,18.8912115 C164.453228,24.1625418 166.645635,28.2634358 172.590222,29.4229538 C179.283063,30.7331436 185.797021,26.9292259 192.644748,29.2853838 C202.598931,32.7071629 204.311409,41.4592307 203.388634,50.3728885 C196.410017,51.8403011 189.355047,54.4694153 184.276515,55.1485303 C184.208889,55.1550813 184.160896,55.1922033 184.099814,55.2074889 C184.034369,55.2096725 183.97765,55.187836 183.910023,55.1965706 C179.867705,55.7534013 177.448421,56.7819003 176.449294,60.8675088 C175.138213,66.2196341 176.482017,73.6833486 176.543099,79.1708602 C176.612907,85.2261207 176.684896,91.2835648 176.752523,97.3410089 C176.80706,102.328465 175.718492,105.451084 180.304004,107.187085 C184.136899,108.637029 191.11988,106.813681 195.090209,106.595316 C202.326244,106.197892 209.206694,106.110546 216.370739,107.54302 C217.086271,107.684957 217.862885,107.344308 218.057038,106.582214 C220.884262,95.5635181 223.10721,84.4203539 224.481555,73.1221506 C225.214539,67.086543 227.830157,58.5681257 223.111573,53.6025064 C219.095432,49.372777 213.222835,48.8530684 207.001198,49.7243446" id="Fill-1" fill="#2B2B2A" mask="url(#mask-2)"></path>
                </g>
                <path d="M197.884025,97.1222325 C187.637518,101.684021 188.258118,91.0601702 188.513401,85.241984 C188.733472,80.2664767 189.127399,75.288792 189.4421,70.3154621 C189.554337,68.5582479 186.785843,68.5647803 186.673607,70.3154621 C186.336898,75.6480737 185.898957,80.9828627 185.696492,86.3220066 C185.575453,89.5098152 184.140589,94.4809676 185.780119,97.5228861 C188.368154,102.326374 195.201359,101.302965 199.281476,99.4869594 C200.901199,98.764041 199.497145,96.4036691 197.884025,97.1222325" id="Fill-4" fill="#2B2B2A"></path>
                <path d="M92.6219406,36.3779178 C92.0314623,36.9226348 91.5243973,37.5273993 91.0480635,38.155754 C90.4356343,38.9642512 89.8890577,39.8242178 89.4083337,40.7270755 C88.0539652,43.2726625 87.0881271,46.0820297 85.7820505,48.5997374 C83.161117,53.6372973 79.9431199,58.1430076 75.465143,61.7630166 C74.0954089,62.8696071 76.0556213,64.7675383 77.41438,63.6695261 C81.1855389,60.6242579 84.1379305,56.9849478 86.5700866,52.8502456 C88.5566401,49.4747158 89.8517412,45.0590769 91.998536,41.5291392 C92.5429175,40.6370042 93.161932,39.828507 93.8402138,39.0822018 C94.0816733,38.8141324 94.3099623,38.5289066 94.5755678,38.2844273 C95.8684739,37.0899101 93.9148467,35.1855451 92.6219406,36.3779178" id="Fill-6" fill="#2B2B2A"></path>
            </g>
        </g>
    </g>
</svg>