<?xml version="1.0" encoding="UTF-8"?>
<svg width="326px" height="166px" viewBox="0 0 326 166" version="1.1" xmlns="http://www.w3.org/2000/svg" xmlns:xlink="http://www.w3.org/1999/xlink">
    <!-- Generator: Sketch 51.1 (57501) - http://www.bohemiancoding.com/sketch -->
    <title>Group 5</title>
    <desc>Created with Sketch.</desc>
    <defs></defs>
    <g id="Page-1" stroke="none" stroke-width="1" fill="none" fill-rule="evenodd">
        <g id="Home" transform="translate(-699.000000, -2772.000000)" fill="#2B2B2A">
            <g id="Group-5" transform="translate(861.500000, 2856.000000) rotate(77.000000) translate(-861.500000, -2856.000000) translate(815.000000, 2682.000000)">
                <path d="M84.7963505,343.804559 C79.0509611,347.32316 74.9405534,342.448413 73.2243523,337.701902 C71.5434639,333.050251 71.0826321,327.601074 70.1556717,322.756189 C68.1322493,312.205655 66.1600305,301.642824 64.235484,291.072966 C60.3034058,269.465977 56.5885013,247.816828 53.0589889,226.141329 C52.3774522,216.428724 63.8664654,224.029817 65.4113996,226.938855 C67.2670862,230.432864 67.7332149,235.054651 68.4694864,238.884183 C70.3022197,248.403554 72.413924,257.850903 74.5203314,267.314061 C76.9886947,278.403892 79.4570581,289.493723 81.9254215,300.583554 C84.1960333,310.791539 88.5642242,322.30297 89.0762596,332.723511 C89.2687142,336.668982 88.198737,341.719396 84.7963505,343.804559 M31.4228481,102.252476 C29.2316901,92.1252979 27.6796934,81.3955834 23.9224135,71.6654117 C22.4586987,67.874527 20.6736377,64.2312022 18.3677131,60.8408373 C13.81413,54.1426707 10.4964943,46.3272647 8.09345956,38.1324189 C9.21993726,39.3006017 10.8584503,40.670801 12.4687131,40.6356676 C14.3173372,40.5952643 15.1365937,38.652392 15.6274413,37.1539561 C16.0211788,35.9559101 16.2507119,34.715704 16.3637128,33.459688 C16.79806,34.153571 17.2694856,34.8228606 17.7921148,35.4587736 C18.8479669,36.7428963 20.5006051,38.4433488 22.359823,38.1253923 C23.934773,37.8566224 24.9358903,36.2527866 25.5397389,34.815834 C27.0970325,42.6382666 28.1246344,50.5555592 28.2605886,58.6414917 C28.3930115,66.4358177 28.0928529,74.2301437 29.2140337,81.9717698 C30.5329661,91.0730551 33.3738793,99.9055705 35.1924875,108.911996 C42.4969362,145.050124 49.8278694,181.132039 58.2711553,217.03126 C57.5913843,217.1472 56.9239727,217.350974 56.2848114,217.630283 C47.9969018,179.169843 39.7425393,140.70589 31.4228481,102.252476 M82.2202832,289.73263 C78.7984747,274.358291 75.011179,259.012059 72.0219521,243.549887 C70.838974,237.43142 69.6595271,218.914406 61.0273178,217.06288 C61.0149584,217.061124 61.0043645,217.061124 60.9937707,217.05761 C52.4798593,180.919482 45.1030194,144.595148 37.7473672,108.211086 C36.0346973,99.7386873 33.4056608,91.4314149 32.0072747,82.8992893 C30.4217308,73.2270876 31.2674719,63.4529993 30.773093,53.7175576 C29.8549607,35.5940369 24.4838867,18.1398059 19.1251723,0.919211377 C18.6219651,-0.695164461 16.0635542,-0.00655148084 16.5702926,1.62012102 C19.2346419,10.18211 21.3869559,16.8978432 23.4668786,25.575772 C24.2049158,28.3934639 24.1183994,30.6051061 23.7370214,32.1861053 C23.5410355,33.0047116 22.8948116,35.5729569 21.7930528,35.6098469 C20.6665751,35.6449802 19.1640163,33.1259215 18.6837625,32.3793386 C17.5184407,30.5682162 16.5720582,29.2296368 16.0211788,26.5595049 C15.5727065,24.5129893 12.6682303,11.3292127 10.9926389,3.77906324 C10.6253859,2.12252743 8.07227189,2.82343707 8.43952481,4.47821622 C10.1151163,12.031879 13.5122058,27.2270379 13.5298621,27.2797378 C13.9677406,29.7952832 14.0754446,32.3881219 13.5828313,34.9054239 C13.4203925,35.7257868 13.2314692,36.7007363 12.8059501,37.433266 C12.3574778,38.2009289 12.6134955,38.0463423 11.9884593,37.932159 C10.7895904,37.7143325 9.46889237,35.9506401 8.79441825,35.0600105 C7.42075108,33.2488881 6.04002136,29.9709498 5.67276844,28.3425206 C4.05544308,20.5007647 3.12495131,12.5799587 2.65176005,5.17385586 C2.54229043,3.49097006 -0.106168124,3.48043006 0.00330149586,5.17385586 C1.04679417,21.4651742 4.45624314,37.6387959 10.9537948,52.6811248 C14.0136472,59.7710278 19.3229238,65.4468149 21.699474,72.8125145 C24.5280277,81.58706 26.2389319,90.8604985 28.1987913,99.8598972 C36.8027503,139.3515 45.2301454,178.883507 53.7440568,218.394433 C53.7987916,218.650906 53.9170894,218.831843 54.0583406,218.981159 C51.7612442,220.802822 50.2074818,223.567814 50.4140616,226.229162 C50.4193585,226.299429 50.4529057,226.352129 50.4687964,226.417126 C50.470562,226.473339 50.4529057,226.520769 50.4617339,226.580495 C55.7304007,258.947062 61.4281179,291.246876 67.6025576,323.457099 C68.9373807,330.422279 69.2640239,345.742161 78.7419743,347.616523 C85.9810943,349.048206 92.6234284,343.332016 92.5086618,336.507369 C92.3868328,329.081943 89.1027441,320.667514 87.4889501,313.415998 C85.7321392,305.521542 83.977094,297.627086 82.2202832,289.73263" id="Fill-1"></path>
                <path d="M67.5615602,290.276364 C70.7671108,306.359287 73.9035916,322.456215 76.9692315,338.565397 C77.2844735,340.223231 79.8471429,339.521234 79.531901,337.8669 C76.4644901,321.755968 73.3297803,305.660791 70.1224586,289.577868 C69.7948195,287.920033 67.23215,288.623781 67.5615602,290.276364" id="Fill-3"></path>
            </g>
        </g>
    </g>
</svg>