<?xml version="1.0" encoding="utf-8"?>
<!-- Generator: Adobe Illustrator 22.1.0, SVG Export Plug-In . SVG Version: 6.00 Build 0)  -->
<svg version="1.1" id="Layer_1" xmlns="http://www.w3.org/2000/svg" xmlns:xlink="http://www.w3.org/1999/xlink" x="0px" y="0px"
	 viewBox="0 0 73 94" style="enable-background:new 0 0 73 94;" xml:space="preserve">
<style type="text/css">
	.st0{fill:#2B2B2A;}
</style>
<g>
	<path class="st0" d="M46,14.8c-3.4-1.5-7.3-0.6-10.8,0.1c-2.9,0.6-5.8,1.7-8.8,1.7c-3.5,0.1-7-1.6-10.5-1C9.6,16.9,3,24.6,0.8,30.5
		c-1.2,3.3-1,6.2,0,9.6c1.1,3.6,2.9,6.3,3,10.2c0.1,2.5-0.6,4.6-0.8,7c-0.7,7.5,1.5,13.2,8.5,16.5c5,2.3,10.6,2.2,16,2.2
		c6.4,0,13.4,0.6,19.7-0.3c7.6-1.1,11.8-6.3,13.4-13.7c0-0.1,0-0.1,0-0.2c0,0,0-0.1,0-0.1c1.3-11-2.2-21.2-5.4-31.6
		C53.6,24.5,51.8,17.3,46,14.8z M58.8,61.4c-1.1,5.1-3.9,10.1-9.1,11.8c-4,1.3-9.5,0.6-13.7,0.6c-8.1,0.1-18.3,1.7-25.5-2.8
		c-9.2-5.8-3.7-14.6-4.9-23c-0.3-2.3-1.3-4.3-2.1-6.4c-2.4-6.3-0.6-12.2,3.8-17.3c4.4-5.1,8.5-6.1,15.3-5.9c2.1,0.1,4,0.4,6.2,0.1
		c7.6-1,16.2-5.6,21.3,3.1c2.7,4.6,3.9,10.5,5.5,15.6C58,45,59.7,53.1,58.8,61.4z"/>
	<path class="st0" d="M46.1,32.1c3.9,11,4.2,22.4,1,33.7c-0.3,1.2,1.4,1.7,1.7,0.5c3.3-11.6,2.9-23.4-1-34.7
		C47.3,30.5,45.7,31,46.1,32.1z"/>
	<path class="st0" d="M41.3,21.9c1.6,1.7,2.4,3.8,2.4,6.1c0,1.4,2.3,1.4,2.3,0c0-2.8-1.1-5.4-3.1-7.6C42,19.3,40.3,20.8,41.3,21.9z"
		/>
	<path class="st0" d="M26.3,28.8l0.4-0.4c0.7-0.7-0.4-1.8-1.1-1.1c-0.1,0.1-0.3,0.3-0.4,0.4C24.5,28.4,25.6,29.5,26.3,28.8z"/>
	<path class="st0" d="M21.3,48c-0.6-0.1-1.1,0.2-1.3,0.9c-0.1,0.6,0.2,1.5,0.7,1.6c0.2,0,0.3,0.3,0.1,0.4c-1,1,0.4,2.8,1.4,1.8
		C23.6,51.4,23,48.3,21.3,48z"/>
	<path class="st0" d="M37,60c-0.5,0.1-0.9,0.3-1.4,0.4c-1,0.3-0.6,1.8,0.5,1.5c0.5-0.1,0.9-0.3,1.4-0.4C38.4,61.2,38,59.7,37,60z"/>
	<path class="st0" d="M40,54.8v0.4c0,1,2,1,2,0v-0.4C42,53.7,40,53.7,40,54.8z"/>
	<path class="st0" d="M40,34c-1.3,0-1.3,2,0,2S41.3,34,40,34z"/>
	<path class="st0" d="M35,35c-1.3,0-1.3,2,0,2C36.3,37,36.3,35,35,35z"/>
	<path class="st0" d="M31,43c-1.3,0-1.3,2,0,2C32.3,45,32.3,43,31,43z"/>
	<path class="st0" d="M14.9,22.7c-0.2,0.3-0.6,0.3-1,0.4c-0.5,0.1-0.9,0.2-1.3,0.5c-1,0.8-0.6,2.4,0.4,3c1.1,0.8,2.7,0.3,3.5-0.8
		c0.8-1,0.8-2.5,0.1-3.5C16,21.7,15,22.1,14.9,22.7z M14.1,25.3c-0.1,0-0.6-0.3-0.4-0.5c0.1-0.2,1-0.2,1.2-0.2
		c0.1,0,0.3-0.1,0.4-0.1c0,0.1-0.1,0.3-0.2,0.4C14.8,25.2,14.5,25.4,14.1,25.3z"/>
	<path class="st0" d="M15.7,37.2c-0.1,0.1-0.3,0.3-0.4,0.4c-0.7,0.7,0.4,1.8,1.1,1.1l0.4-0.4C17.5,37.6,16.4,36.5,15.7,37.2z"/>
	<path class="st0" d="M42,45c-1.3,0-1.3,2,0,2C43.3,47,43.3,45,42,45z"/>
	<path class="st0" d="M26.1,56.3C25.5,56.7,24.8,57,24,57c-1.4,0.1-1.4,2,0,2c1.4-0.1,2.6-0.5,3.6-1.4
		C28.7,56.8,27.2,55.4,26.1,56.3z"/>
	<path class="st0" d="M13.2,63h-0.4c-1,0-1,2,0,2h0.4C14.3,65,14.3,63,13.2,63z"/>
	<path class="st0" d="M10,57c-1.3,0-1.3,2,0,2C11.3,59,11.3,57,10,57z"/>
	<path class="st0" d="M9,51c-1.3,0-1.3,2,0,2S10.3,51,9,51z"/>
	<path class="st0" d="M8,40c-1.3,0-1.3,2,0,2C9.3,42,9.3,40,8,40z"/>
	<path class="st0" d="M25,66c-1.3,0-1.3,2,0,2C26.3,68,26.3,66,25,66z"/>
	<path class="st0" d="M50.5,11.5c0.3,0.1,0.7,0.3,1,0.4c1.1,0.5,2.1-0.9,1-1.4c-0.3-0.1-0.7-0.3-1-0.4C50.4,9.6,49.4,11,50.5,11.5z"
		/>
	<path class="st0" d="M46,7c1.3,0,1.3-2,0-2C44.7,5,44.7,7,46,7z"/>
	<path class="st0" d="M37,7c1.3,0,1.3-2,0-2C35.7,5,35.7,7,37,7z"/>
	<path class="st0" d="M53,2c1.3,0,1.3-2,0-2C51.7,0,51.7,2,53,2z"/>
	<path class="st0" d="M72,43.1c-1.2,0-1.2,2.1,0,2.1C73.2,45.3,73.2,43.1,72,43.1z"/>
	<path class="st0" d="M42,84c-1.3,0-1.3,2,0,2C43.3,86,43.3,84,42,84z"/>
	<path class="st0" d="M28,92c-1.3,0-1.3,2,0,2C29.3,94,29.3,92,28,92z"/>
	<path class="st0" d="M21,77c-1.3,0-1.3,2,0,2C22.3,79,22.3,77,21,77z"/>
	<path class="st0" d="M27.8,81.7c-0.1-0.1-0.3-0.3-0.4-0.4c-0.7-0.7-1.8,0.4-1.1,1.1l0.4,0.4C27.4,83.5,28.5,82.4,27.8,81.7z"/>
	<path class="st0" d="M37.6,21.1c-2.4-0.5-3.6,2.5-3.6,4c0,0,0,0,0,0c0,0.5,0.2,1,0.7,1.4c0.8,0.6,2,0.6,3,0.2
		c0.7-0.3,0.8-0.7,0.9-1.3c0.1-0.8,0.2-1.5,0.4-2.3c0-0.1,0-0.2,0-0.3C39.1,22.1,38.7,21.3,37.6,21.1z M36.9,23c0,0.1,0,0.2,0,0.3
		c0,0,0,0,0,0c-0.1,0-0.1,0-0.2-0.1c0,0,0,0,0,0C36.7,23.2,36.8,23.1,36.9,23z"/>
</g>
</svg>
